<mxfile host="app.diagrams.net" modified="2024-02-19T10:46:57.338Z" agent="Mozilla/5.0 (Windows NT 10.0; Win64; x64) AppleWebKit/537.36 (KHTML, like Gecko) Chrome/121.0.0.0 Safari/537.36" etag="qsZlOkZvvaBee7RkdZua" version="23.1.5" type="google">
  <diagram id="zmca4Ixx5fCjBGw_0RnP" name="Page-2">
    <mxGraphModel dx="610" dy="568" grid="1" gridSize="10" guides="1" tooltips="1" connect="1" arrows="1" fold="1" page="1" pageScale="1" pageWidth="850" pageHeight="1100" math="0" shadow="0">
      <root>
        <mxCell id="0" />
        <mxCell id="1" parent="0" />
        <mxCell id="UQEpbztOWncI2H_KrR4M-1" value="CUSTOMER" style="whiteSpace=wrap;html=1;align=center;fontFamily=Courier New;fillColor=#1ba1e2;fontColor=#ffffff;strokeColor=#006EAF;" parent="1" vertex="1">
          <mxGeometry x="200" y="160" width="100" height="40" as="geometry" />
        </mxCell>
        <mxCell id="UQEpbztOWncI2H_KrR4M-4" value="ORDER" style="whiteSpace=wrap;html=1;align=center;strokeColor=default;verticalAlign=middle;fontFamily=Courier New;fontSize=12;fontColor=default;fillColor=default;" parent="1" vertex="1">
          <mxGeometry x="200" y="420" width="100" height="40" as="geometry" />
        </mxCell>
        <mxCell id="UQEpbztOWncI2H_KrR4M-5" value="ITEM" style="whiteSpace=wrap;html=1;align=center;strokeColor=#006EAF;verticalAlign=middle;fontFamily=Courier New;fontSize=12;fontColor=#ffffff;fillColor=#1ba1e2;" parent="1" vertex="1">
          <mxGeometry x="560" y="400" width="100" height="40" as="geometry" />
        </mxCell>
        <mxCell id="UQEpbztOWncI2H_KrR4M-7" value="&amp;nbsp;placing order" style="shape=rhombus;perimeter=rhombusPerimeter;whiteSpace=wrap;html=1;align=center;strokeColor=#B20000;verticalAlign=middle;fontFamily=Courier New;fontSize=12;fontColor=#ffffff;fillColor=#e51400;" parent="1" vertex="1">
          <mxGeometry x="190" y="270" width="120" height="60" as="geometry" />
        </mxCell>
        <mxCell id="UQEpbztOWncI2H_KrR4M-8" value="serve" style="shape=rhombus;perimeter=rhombusPerimeter;whiteSpace=wrap;html=1;align=center;strokeColor=#B20000;verticalAlign=middle;fontFamily=Courier New;fontSize=12;fontColor=#ffffff;fillColor=#e51400;" parent="1" vertex="1">
          <mxGeometry x="550" y="260" width="120" height="60" as="geometry" />
        </mxCell>
        <mxCell id="UQEpbztOWncI2H_KrR4M-9" value="count of order" style="shape=rhombus;perimeter=rhombusPerimeter;whiteSpace=wrap;html=1;align=center;strokeColor=#B20000;verticalAlign=middle;fontFamily=Courier New;fontSize=12;fontColor=#ffffff;fillColor=#e51400;" parent="1" vertex="1">
          <mxGeometry x="360" y="390" width="120" height="60" as="geometry" />
        </mxCell>
        <mxCell id="UQEpbztOWncI2H_KrR4M-10" value="Delivery" style="shape=rhombus;perimeter=rhombusPerimeter;whiteSpace=wrap;html=1;align=center;strokeColor=#B20000;verticalAlign=middle;fontFamily=Courier New;fontSize=12;fontColor=#ffffff;fillColor=#e51400;" parent="1" vertex="1">
          <mxGeometry x="290" y="480" width="120" height="60" as="geometry" />
        </mxCell>
        <mxCell id="UQEpbztOWncI2H_KrR4M-13" value="" style="endArrow=none;html=1;rounded=0;fontFamily=Courier New;fontSize=12;fontColor=default;exitX=0.5;exitY=1;exitDx=0;exitDy=0;entryX=0.5;entryY=0;entryDx=0;entryDy=0;" parent="1" source="UQEpbztOWncI2H_KrR4M-7" target="UQEpbztOWncI2H_KrR4M-4" edge="1">
          <mxGeometry relative="1" as="geometry">
            <mxPoint x="450" y="300" as="sourcePoint" />
            <mxPoint x="260" y="420" as="targetPoint" />
          </mxGeometry>
        </mxCell>
        <mxCell id="UQEpbztOWncI2H_KrR4M-14" value="M" style="resizable=0;html=1;whiteSpace=wrap;align=right;verticalAlign=bottom;strokeColor=default;fontFamily=Courier New;fontSize=12;fontColor=default;fillColor=default;" parent="UQEpbztOWncI2H_KrR4M-13" connectable="0" vertex="1">
          <mxGeometry x="1" relative="1" as="geometry">
            <mxPoint x="-20" y="-30" as="offset" />
          </mxGeometry>
        </mxCell>
        <mxCell id="UQEpbztOWncI2H_KrR4M-20" value="" style="shape=link;html=1;rounded=0;fontFamily=Courier New;fontSize=12;fontColor=default;entryX=0.5;entryY=0;entryDx=0;entryDy=0;exitX=0.5;exitY=1;exitDx=0;exitDy=0;" parent="1" source="UQEpbztOWncI2H_KrR4M-1" target="UQEpbztOWncI2H_KrR4M-7" edge="1">
          <mxGeometry relative="1" as="geometry">
            <mxPoint x="300" y="200" as="sourcePoint" />
            <mxPoint x="500" y="310" as="targetPoint" />
          </mxGeometry>
        </mxCell>
        <mxCell id="UQEpbztOWncI2H_KrR4M-21" value="1" style="resizable=0;html=1;whiteSpace=wrap;align=right;verticalAlign=bottom;strokeColor=default;fontFamily=Courier New;fontSize=12;fontColor=default;fillColor=default;" parent="UQEpbztOWncI2H_KrR4M-20" connectable="0" vertex="1">
          <mxGeometry x="1" relative="1" as="geometry">
            <mxPoint x="-30" y="-35" as="offset" />
          </mxGeometry>
        </mxCell>
        <mxCell id="UQEpbztOWncI2H_KrR4M-22" value="name" style="ellipse;whiteSpace=wrap;html=1;align=center;strokeColor=#C73500;verticalAlign=middle;fontFamily=Courier New;fontSize=12;fontColor=#000000;fillColor=#fa6800;" parent="1" vertex="1">
          <mxGeometry x="190" y="80" width="100" height="40" as="geometry" />
        </mxCell>
        <mxCell id="UQEpbztOWncI2H_KrR4M-23" value="emailID" style="ellipse;whiteSpace=wrap;html=1;align=center;strokeColor=#C73500;verticalAlign=middle;fontFamily=Courier New;fontSize=12;fontColor=#000000;fillColor=#fa6800;" parent="1" vertex="1">
          <mxGeometry x="320" y="100" width="100" height="40" as="geometry" />
        </mxCell>
        <mxCell id="UQEpbztOWncI2H_KrR4M-24" value="phone number" style="ellipse;whiteSpace=wrap;html=1;align=center;strokeColor=#C73500;verticalAlign=middle;fontFamily=Courier New;fontSize=12;fontColor=#000000;fillColor=#fa6800;" parent="1" vertex="1">
          <mxGeometry x="80" y="120" width="100" height="40" as="geometry" />
        </mxCell>
        <mxCell id="UQEpbztOWncI2H_KrR4M-25" value="customerID" style="ellipse;whiteSpace=wrap;html=1;align=center;fontStyle=4;strokeColor=#3700CC;verticalAlign=middle;fontFamily=Courier New;fontSize=12;fontColor=#ffffff;fillColor=#6a00ff;" parent="1" vertex="1">
          <mxGeometry x="110" y="220" width="100" height="40" as="geometry" />
        </mxCell>
        <mxCell id="UQEpbztOWncI2H_KrR4M-26" value="" style="endArrow=none;html=1;rounded=0;fontFamily=Courier New;fontSize=12;fontColor=default;exitX=0.912;exitY=0.225;exitDx=0;exitDy=0;exitPerimeter=0;entryX=0.25;entryY=1;entryDx=0;entryDy=0;" parent="1" source="UQEpbztOWncI2H_KrR4M-25" target="UQEpbztOWncI2H_KrR4M-1" edge="1">
          <mxGeometry relative="1" as="geometry">
            <mxPoint x="190" y="230" as="sourcePoint" />
            <mxPoint x="350" y="230" as="targetPoint" />
          </mxGeometry>
        </mxCell>
        <mxCell id="UQEpbztOWncI2H_KrR4M-27" value="" style="endArrow=none;html=1;rounded=0;fontFamily=Courier New;fontSize=12;fontColor=default;exitX=0;exitY=0.5;exitDx=0;exitDy=0;entryX=1;entryY=1;entryDx=0;entryDy=0;" parent="1" source="UQEpbztOWncI2H_KrR4M-1" target="UQEpbztOWncI2H_KrR4M-24" edge="1">
          <mxGeometry relative="1" as="geometry">
            <mxPoint x="201" y="229" as="sourcePoint" />
            <mxPoint x="235" y="210" as="targetPoint" />
          </mxGeometry>
        </mxCell>
        <mxCell id="UQEpbztOWncI2H_KrR4M-28" value="" style="endArrow=none;html=1;rounded=0;fontFamily=Courier New;fontSize=12;fontColor=default;entryX=0.453;entryY=1.017;entryDx=0;entryDy=0;entryPerimeter=0;" parent="1" source="UQEpbztOWncI2H_KrR4M-1" target="UQEpbztOWncI2H_KrR4M-22" edge="1">
          <mxGeometry relative="1" as="geometry">
            <mxPoint x="210" y="190" as="sourcePoint" />
            <mxPoint x="175" y="164" as="targetPoint" />
          </mxGeometry>
        </mxCell>
        <mxCell id="UQEpbztOWncI2H_KrR4M-29" value="" style="endArrow=none;html=1;rounded=0;fontFamily=Courier New;fontSize=12;fontColor=default;entryX=0;entryY=1;entryDx=0;entryDy=0;exitX=1;exitY=0;exitDx=0;exitDy=0;" parent="1" source="UQEpbztOWncI2H_KrR4M-1" target="UQEpbztOWncI2H_KrR4M-23" edge="1">
          <mxGeometry relative="1" as="geometry">
            <mxPoint x="255" y="170" as="sourcePoint" />
            <mxPoint x="245" y="131" as="targetPoint" />
          </mxGeometry>
        </mxCell>
        <mxCell id="UQEpbztOWncI2H_KrR4M-47" value="Restaurant" style="whiteSpace=wrap;html=1;align=center;fontFamily=Courier New;fillColor=#1ba1e2;fontColor=#ffffff;strokeColor=#006EAF;" parent="1" vertex="1">
          <mxGeometry x="560" y="160" width="100" height="40" as="geometry" />
        </mxCell>
        <mxCell id="UQEpbztOWncI2H_KrR4M-50" value="address" style="ellipse;whiteSpace=wrap;html=1;align=center;strokeColor=#C73500;verticalAlign=middle;fontFamily=Courier New;fontSize=12;fontColor=#000000;fillColor=#fa6800;" parent="1" vertex="1">
          <mxGeometry x="550" y="80" width="100" height="40" as="geometry" />
        </mxCell>
        <mxCell id="UQEpbztOWncI2H_KrR4M-51" value="cusines" style="ellipse;whiteSpace=wrap;html=1;align=center;strokeColor=#C73500;verticalAlign=middle;fontFamily=Courier New;fontSize=12;fontColor=#000000;fillColor=#fa6800;" parent="1" vertex="1">
          <mxGeometry x="680" y="100" width="100" height="40" as="geometry" />
        </mxCell>
        <mxCell id="UQEpbztOWncI2H_KrR4M-52" value="Name" style="ellipse;whiteSpace=wrap;html=1;align=center;strokeColor=#C73500;verticalAlign=middle;fontFamily=Courier New;fontSize=12;fontColor=#000000;fillColor=#fa6800;" parent="1" vertex="1">
          <mxGeometry x="440" y="120" width="100" height="40" as="geometry" />
        </mxCell>
        <mxCell id="UQEpbztOWncI2H_KrR4M-53" value="RestaurantID" style="ellipse;whiteSpace=wrap;html=1;align=center;fontStyle=4;strokeColor=#3700CC;verticalAlign=middle;fontFamily=Courier New;fontSize=12;fontColor=#ffffff;fillColor=#6a00ff;" parent="1" vertex="1">
          <mxGeometry x="470" y="220" width="100" height="40" as="geometry" />
        </mxCell>
        <mxCell id="UQEpbztOWncI2H_KrR4M-54" value="" style="endArrow=none;html=1;rounded=0;fontFamily=Courier New;fontSize=12;fontColor=default;exitX=0.912;exitY=0.225;exitDx=0;exitDy=0;exitPerimeter=0;entryX=0.25;entryY=1;entryDx=0;entryDy=0;" parent="1" source="UQEpbztOWncI2H_KrR4M-53" target="UQEpbztOWncI2H_KrR4M-47" edge="1">
          <mxGeometry relative="1" as="geometry">
            <mxPoint x="550" y="230" as="sourcePoint" />
            <mxPoint x="710" y="230" as="targetPoint" />
          </mxGeometry>
        </mxCell>
        <mxCell id="UQEpbztOWncI2H_KrR4M-55" value="" style="endArrow=none;html=1;rounded=0;fontFamily=Courier New;fontSize=12;fontColor=default;exitX=0;exitY=0.5;exitDx=0;exitDy=0;entryX=1;entryY=1;entryDx=0;entryDy=0;" parent="1" source="UQEpbztOWncI2H_KrR4M-47" target="UQEpbztOWncI2H_KrR4M-52" edge="1">
          <mxGeometry relative="1" as="geometry">
            <mxPoint x="561" y="229" as="sourcePoint" />
            <mxPoint x="595" y="210" as="targetPoint" />
          </mxGeometry>
        </mxCell>
        <mxCell id="UQEpbztOWncI2H_KrR4M-56" value="" style="endArrow=none;html=1;rounded=0;fontFamily=Courier New;fontSize=12;fontColor=default;entryX=0.453;entryY=1.017;entryDx=0;entryDy=0;entryPerimeter=0;" parent="1" source="UQEpbztOWncI2H_KrR4M-47" target="UQEpbztOWncI2H_KrR4M-50" edge="1">
          <mxGeometry relative="1" as="geometry">
            <mxPoint x="570" y="190" as="sourcePoint" />
            <mxPoint x="535" y="164" as="targetPoint" />
          </mxGeometry>
        </mxCell>
        <mxCell id="UQEpbztOWncI2H_KrR4M-57" value="" style="endArrow=none;html=1;rounded=0;fontFamily=Courier New;fontSize=12;fontColor=default;entryX=0;entryY=1;entryDx=0;entryDy=0;exitX=1;exitY=0;exitDx=0;exitDy=0;" parent="1" source="UQEpbztOWncI2H_KrR4M-47" target="UQEpbztOWncI2H_KrR4M-51" edge="1">
          <mxGeometry relative="1" as="geometry">
            <mxPoint x="615" y="170" as="sourcePoint" />
            <mxPoint x="605" y="131" as="targetPoint" />
          </mxGeometry>
        </mxCell>
        <mxCell id="UQEpbztOWncI2H_KrR4M-58" value="" style="shape=link;html=1;rounded=0;fontFamily=Courier New;fontSize=12;fontColor=default;entryX=0.5;entryY=0;entryDx=0;entryDy=0;exitX=0.5;exitY=1;exitDx=0;exitDy=0;" parent="1" source="UQEpbztOWncI2H_KrR4M-47" target="UQEpbztOWncI2H_KrR4M-8" edge="1">
          <mxGeometry relative="1" as="geometry">
            <mxPoint x="430" y="300" as="sourcePoint" />
            <mxPoint x="590" y="300" as="targetPoint" />
          </mxGeometry>
        </mxCell>
        <mxCell id="UQEpbztOWncI2H_KrR4M-59" value="1" style="resizable=0;html=1;whiteSpace=wrap;align=right;verticalAlign=bottom;strokeColor=default;fontFamily=Courier New;fontSize=12;fontColor=default;fillColor=default;" parent="UQEpbztOWncI2H_KrR4M-58" connectable="0" vertex="1">
          <mxGeometry x="1" relative="1" as="geometry">
            <mxPoint x="-10" y="-10" as="offset" />
          </mxGeometry>
        </mxCell>
        <mxCell id="UQEpbztOWncI2H_KrR4M-62" value="" style="endArrow=none;html=1;rounded=0;fontFamily=Courier New;fontSize=12;fontColor=default;entryX=0.5;entryY=1;entryDx=0;entryDy=0;exitX=0.5;exitY=0;exitDx=0;exitDy=0;" parent="1" source="UQEpbztOWncI2H_KrR4M-5" target="UQEpbztOWncI2H_KrR4M-8" edge="1">
          <mxGeometry relative="1" as="geometry">
            <mxPoint x="430" y="300" as="sourcePoint" />
            <mxPoint x="590" y="300" as="targetPoint" />
          </mxGeometry>
        </mxCell>
        <mxCell id="UQEpbztOWncI2H_KrR4M-63" value="N" style="resizable=0;html=1;whiteSpace=wrap;align=right;verticalAlign=bottom;strokeColor=default;fontFamily=Courier New;fontSize=12;fontColor=default;fillColor=default;" parent="UQEpbztOWncI2H_KrR4M-62" connectable="0" vertex="1">
          <mxGeometry x="1" relative="1" as="geometry">
            <mxPoint x="20" y="40" as="offset" />
          </mxGeometry>
        </mxCell>
        <mxCell id="UQEpbztOWncI2H_KrR4M-64" value="ORDER" style="whiteSpace=wrap;html=1;align=center;fontFamily=Courier New;fillColor=#1ba1e2;fontColor=#ffffff;strokeColor=#006EAF;" parent="1" vertex="1">
          <mxGeometry x="200" y="420" width="100" height="40" as="geometry" />
        </mxCell>
        <mxCell id="UQEpbztOWncI2H_KrR4M-67" value="name" style="ellipse;whiteSpace=wrap;html=1;align=center;strokeColor=#C73500;verticalAlign=middle;fontFamily=Courier New;fontSize=12;fontColor=#000000;fillColor=#fa6800;" parent="1" vertex="1">
          <mxGeometry x="150" y="560" width="100" height="40" as="geometry" />
        </mxCell>
        <mxCell id="UQEpbztOWncI2H_KrR4M-68" value="ORDER DATE" style="ellipse;whiteSpace=wrap;html=1;align=center;strokeColor=#C73500;verticalAlign=middle;fontFamily=Courier New;fontSize=12;fontColor=#000000;fillColor=#fa6800;" parent="1" vertex="1">
          <mxGeometry x="70" y="400" width="100" height="40" as="geometry" />
        </mxCell>
        <mxCell id="UQEpbztOWncI2H_KrR4M-69" value="UniqueOrderID" style="ellipse;whiteSpace=wrap;html=1;align=center;fontStyle=4;strokeColor=#3700CC;verticalAlign=middle;fontFamily=Courier New;fontSize=12;fontColor=#ffffff;fillColor=#6a00ff;" parent="1" vertex="1">
          <mxGeometry x="100" y="480" width="110" height="40" as="geometry" />
        </mxCell>
        <mxCell id="UQEpbztOWncI2H_KrR4M-70" value="" style="endArrow=none;html=1;rounded=0;fontFamily=Courier New;fontSize=12;fontColor=default;exitX=0.912;exitY=0.225;exitDx=0;exitDy=0;exitPerimeter=0;entryX=0.25;entryY=1;entryDx=0;entryDy=0;" parent="1" source="UQEpbztOWncI2H_KrR4M-69" target="UQEpbztOWncI2H_KrR4M-64" edge="1">
          <mxGeometry relative="1" as="geometry">
            <mxPoint x="190" y="490" as="sourcePoint" />
            <mxPoint x="350" y="490" as="targetPoint" />
          </mxGeometry>
        </mxCell>
        <mxCell id="UQEpbztOWncI2H_KrR4M-71" value="" style="endArrow=none;html=1;rounded=0;fontFamily=Courier New;fontSize=12;fontColor=default;exitX=0;exitY=0.5;exitDx=0;exitDy=0;entryX=1;entryY=0.5;entryDx=0;entryDy=0;" parent="1" source="UQEpbztOWncI2H_KrR4M-64" target="UQEpbztOWncI2H_KrR4M-68" edge="1">
          <mxGeometry relative="1" as="geometry">
            <mxPoint x="201" y="489" as="sourcePoint" />
            <mxPoint x="235" y="470" as="targetPoint" />
          </mxGeometry>
        </mxCell>
        <mxCell id="UQEpbztOWncI2H_KrR4M-72" value="" style="endArrow=none;html=1;rounded=0;fontFamily=Courier New;fontSize=12;fontColor=default;entryX=0.5;entryY=0;entryDx=0;entryDy=0;" parent="1" source="UQEpbztOWncI2H_KrR4M-64" target="UQEpbztOWncI2H_KrR4M-67" edge="1">
          <mxGeometry relative="1" as="geometry">
            <mxPoint x="210" y="450" as="sourcePoint" />
            <mxPoint x="210" y="560" as="targetPoint" />
          </mxGeometry>
        </mxCell>
        <mxCell id="UQEpbztOWncI2H_KrR4M-73" value="" style="endArrow=none;html=1;rounded=0;fontFamily=Courier New;fontSize=12;fontColor=default;entryX=0.5;entryY=0;entryDx=0;entryDy=0;exitX=1;exitY=0.5;exitDx=0;exitDy=0;" parent="1" source="UQEpbztOWncI2H_KrR4M-64" target="UQEpbztOWncI2H_KrR4M-10" edge="1">
          <mxGeometry relative="1" as="geometry">
            <mxPoint x="255" y="430" as="sourcePoint" />
            <mxPoint x="335" y="394" as="targetPoint" />
            <Array as="points">
              <mxPoint x="350" y="440" />
            </Array>
          </mxGeometry>
        </mxCell>
        <mxCell id="UQEpbztOWncI2H_KrR4M-75" value="1" style="text;html=1;align=center;verticalAlign=middle;resizable=0;points=[];autosize=1;strokeColor=none;fillColor=none;fontFamily=Courier New;fontSize=12;fontColor=default;" parent="1" vertex="1">
          <mxGeometry x="355" y="448" width="30" height="30" as="geometry" />
        </mxCell>
        <mxCell id="UQEpbztOWncI2H_KrR4M-76" value="" style="shape=link;html=1;rounded=0;fontFamily=Courier New;fontSize=12;fontColor=default;entryX=0.5;entryY=1;entryDx=0;entryDy=0;exitX=0.75;exitY=1;exitDx=0;exitDy=0;" parent="1" source="UQEpbztOWncI2H_KrR4M-64" target="UQEpbztOWncI2H_KrR4M-10" edge="1">
          <mxGeometry relative="1" as="geometry">
            <mxPoint x="240" y="310" as="sourcePoint" />
            <mxPoint x="400" y="310" as="targetPoint" />
            <Array as="points">
              <mxPoint x="275" y="580" />
              <mxPoint x="350" y="580" />
            </Array>
          </mxGeometry>
        </mxCell>
        <mxCell id="UQEpbztOWncI2H_KrR4M-77" value="1" style="resizable=0;html=1;whiteSpace=wrap;align=right;verticalAlign=bottom;strokeColor=default;fontFamily=Courier New;fontSize=12;fontColor=default;fillColor=default;" parent="UQEpbztOWncI2H_KrR4M-76" connectable="0" vertex="1">
          <mxGeometry x="1" relative="1" as="geometry">
            <mxPoint x="-40" y="30" as="offset" />
          </mxGeometry>
        </mxCell>
        <mxCell id="UQEpbztOWncI2H_KrR4M-78" value="Name" style="ellipse;whiteSpace=wrap;html=1;align=center;strokeColor=#C73500;verticalAlign=middle;fontFamily=Courier New;fontSize=12;fontColor=#000000;fillColor=#fa6800;" parent="1" vertex="1">
          <mxGeometry x="440" y="460" width="100" height="40" as="geometry" />
        </mxCell>
        <mxCell id="UQEpbztOWncI2H_KrR4M-79" value="" style="endArrow=none;html=1;rounded=0;fontFamily=Courier New;fontSize=12;fontColor=default;exitX=0.25;exitY=1;exitDx=0;exitDy=0;entryX=1;entryY=0.5;entryDx=0;entryDy=0;" parent="1" source="UQEpbztOWncI2H_KrR4M-5" target="UQEpbztOWncI2H_KrR4M-78" edge="1">
          <mxGeometry relative="1" as="geometry">
            <mxPoint x="570" y="500" as="sourcePoint" />
            <mxPoint x="605" y="530" as="targetPoint" />
          </mxGeometry>
        </mxCell>
        <mxCell id="UQEpbztOWncI2H_KrR4M-80" value="Description" style="ellipse;whiteSpace=wrap;html=1;align=center;strokeColor=#C73500;verticalAlign=middle;fontFamily=Courier New;fontSize=12;fontColor=#000000;fillColor=#fa6800;" parent="1" vertex="1">
          <mxGeometry x="460" y="520" width="100" height="40" as="geometry" />
        </mxCell>
        <mxCell id="UQEpbztOWncI2H_KrR4M-81" value="" style="endArrow=none;html=1;rounded=0;fontFamily=Courier New;fontSize=12;fontColor=default;entryX=1;entryY=0;entryDx=0;entryDy=0;exitX=0.5;exitY=1;exitDx=0;exitDy=0;" parent="1" source="UQEpbztOWncI2H_KrR4M-5" target="UQEpbztOWncI2H_KrR4M-80" edge="1">
          <mxGeometry relative="1" as="geometry">
            <mxPoint x="610" y="430" as="sourcePoint" />
            <mxPoint x="625" y="590" as="targetPoint" />
          </mxGeometry>
        </mxCell>
        <mxCell id="UQEpbztOWncI2H_KrR4M-82" value="ORDER DATE" style="ellipse;whiteSpace=wrap;html=1;align=center;strokeColor=#C73500;verticalAlign=middle;fontFamily=Courier New;fontSize=12;fontColor=#000000;fillColor=#fa6800;" parent="1" vertex="1">
          <mxGeometry x="580" y="540" width="100" height="40" as="geometry" />
        </mxCell>
        <mxCell id="UQEpbztOWncI2H_KrR4M-83" value="" style="endArrow=none;html=1;rounded=0;fontFamily=Courier New;fontSize=12;fontColor=default;exitX=0.75;exitY=1;exitDx=0;exitDy=0;entryX=0.5;entryY=0;entryDx=0;entryDy=0;" parent="1" source="UQEpbztOWncI2H_KrR4M-5" target="UQEpbztOWncI2H_KrR4M-82" edge="1">
          <mxGeometry relative="1" as="geometry">
            <mxPoint x="740" y="580" as="sourcePoint" />
            <mxPoint x="775" y="610" as="targetPoint" />
          </mxGeometry>
        </mxCell>
        <mxCell id="UQEpbztOWncI2H_KrR4M-84" value="Attribute" style="ellipse;whiteSpace=wrap;html=1;align=center;fontStyle=4;strokeColor=#3700CC;verticalAlign=middle;fontFamily=Courier New;fontSize=12;fontColor=#ffffff;fillColor=#6a00ff;" parent="1" vertex="1">
          <mxGeometry x="670" y="490" width="100" height="40" as="geometry" />
        </mxCell>
        <mxCell id="UQEpbztOWncI2H_KrR4M-85" value="" style="endArrow=none;html=1;rounded=0;fontFamily=Courier New;fontSize=12;fontColor=default;entryX=0.5;entryY=0;entryDx=0;entryDy=0;exitX=1;exitY=1;exitDx=0;exitDy=0;" parent="1" source="UQEpbztOWncI2H_KrR4M-5" target="UQEpbztOWncI2H_KrR4M-84" edge="1">
          <mxGeometry relative="1" as="geometry">
            <mxPoint x="360" y="440" as="sourcePoint" />
            <mxPoint x="520" y="440" as="targetPoint" />
          </mxGeometry>
        </mxCell>
        <mxCell id="UQEpbztOWncI2H_KrR4M-86" value="" style="shape=link;html=1;rounded=0;fontFamily=Courier New;fontSize=12;fontColor=default;exitX=0.75;exitY=0;exitDx=0;exitDy=0;entryX=0.5;entryY=0;entryDx=0;entryDy=0;" parent="1" source="UQEpbztOWncI2H_KrR4M-64" target="UQEpbztOWncI2H_KrR4M-9" edge="1">
          <mxGeometry relative="1" as="geometry">
            <mxPoint x="360" y="440" as="sourcePoint" />
            <mxPoint x="370" y="350" as="targetPoint" />
            <Array as="points">
              <mxPoint x="275" y="360" />
              <mxPoint x="420" y="360" />
            </Array>
          </mxGeometry>
        </mxCell>
        <mxCell id="UQEpbztOWncI2H_KrR4M-87" value="M" style="resizable=0;html=1;whiteSpace=wrap;align=right;verticalAlign=bottom;strokeColor=default;fontFamily=Courier New;fontSize=12;fontColor=default;fillColor=default;" parent="UQEpbztOWncI2H_KrR4M-86" connectable="0" vertex="1">
          <mxGeometry x="1" relative="1" as="geometry">
            <mxPoint x="-40" y="-30" as="offset" />
          </mxGeometry>
        </mxCell>
        <mxCell id="UQEpbztOWncI2H_KrR4M-88" value="" style="shape=link;html=1;rounded=0;fontFamily=Courier New;fontSize=12;fontColor=default;entryX=0;entryY=0.5;entryDx=0;entryDy=0;exitX=1;exitY=0.5;exitDx=0;exitDy=0;" parent="1" source="UQEpbztOWncI2H_KrR4M-9" target="UQEpbztOWncI2H_KrR4M-5" edge="1">
          <mxGeometry relative="1" as="geometry">
            <mxPoint x="360" y="440" as="sourcePoint" />
            <mxPoint x="520" y="440" as="targetPoint" />
          </mxGeometry>
        </mxCell>
        <mxCell id="UQEpbztOWncI2H_KrR4M-89" value="N" style="resizable=0;html=1;whiteSpace=wrap;align=right;verticalAlign=bottom;strokeColor=default;fontFamily=Courier New;fontSize=12;fontColor=default;fillColor=default;" parent="UQEpbztOWncI2H_KrR4M-88" connectable="0" vertex="1">
          <mxGeometry x="1" relative="1" as="geometry">
            <mxPoint x="-30" as="offset" />
          </mxGeometry>
        </mxCell>
      </root>
    </mxGraphModel>
  </diagram>
</mxfile>
